#N canvas 0 23 1643 880 10;
#X obj 514 146 / 60;
#X obj 64 501 noteout, f 40;
#X floatatom 514 346 5 0 0 0 - - -, f 5;
#X obj 514 320 i;
#X obj 514 369 makenote 127 200, f 34;
#X obj 514 104 change;
#X obj 715 346 change;
#X obj 614 346 change;
#X obj 514 190 osc~;
#X obj 514 216 threshold~ 0 0 0 0;
#X floatatom 514 170 5 0 0 0 - - -, f 5;
#X floatatom 514 126 5 0 0 0 - - -, f 5;
#X obj 522 290 change;
#X floatatom 514 80 5 0 0 0 - - -, f 5;
#X floatatom 614 320 5 0 0 0 - - -, f 5;
#X floatatom 522 269 5 0 0 0 - - -, f 5;
#X floatatom 715 320 5 0 0 0 - - -, f 5;
#X obj 514 57 r \$0-bpm1;
#X obj 522 247 r \$0-note1;
#X obj 614 297 r \$0-vel1;
#X obj 715 297 r \$0-dur1;
#X obj 514 410 s \$0-noteout-note;
#X obj 715 409 s \$0-noteout-vel;
#X obj 64 471 r \$0-noteout-note;
#X obj 182 471 r \$0-noteout-vel;
#X obj 825 145 / 60;
#X floatatom 825 345 5 0 0 0 - - -, f 5;
#X obj 825 319 i;
#X obj 825 368 makenote 127 200, f 34;
#X obj 825 103 change;
#X obj 1026 345 change;
#X obj 925 345 change;
#X obj 825 189 osc~;
#X obj 825 215 threshold~ 0 0 0 0;
#X floatatom 825 169 5 0 0 0 - - -, f 5;
#X floatatom 825 125 5 0 0 0 - - -, f 5;
#X obj 833 289 change;
#X floatatom 825 79 5 0 0 0 - - -, f 5;
#X floatatom 925 319 5 0 0 0 - - -, f 5;
#X floatatom 833 268 5 0 0 0 - - -, f 5;
#X floatatom 1026 319 5 0 0 0 - - -, f 5;
#X obj 825 409 s \$0-noteout-note;
#X obj 1026 408 s \$0-noteout-vel;
#X obj 1135 144 / 60;
#X floatatom 1135 344 5 0 0 0 - - -, f 5;
#X obj 1135 318 i;
#X obj 1135 367 makenote 127 200, f 34;
#X obj 1135 102 change;
#X obj 1336 344 change;
#X obj 1235 344 change;
#X obj 1135 188 osc~;
#X obj 1135 214 threshold~ 0 0 0 0;
#X floatatom 1135 168 5 0 0 0 - - -, f 5;
#X floatatom 1135 124 5 0 0 0 - - -, f 5;
#X obj 1143 288 change;
#X floatatom 1135 78 5 0 0 0 - - -, f 5;
#X floatatom 1235 318 5 0 0 0 - - -, f 5;
#X floatatom 1143 267 5 0 0 0 - - -, f 5;
#X floatatom 1336 318 5 0 0 0 - - -, f 5;
#X obj 1135 408 s \$0-noteout-note;
#X obj 1336 407 s \$0-noteout-vel;
#X obj 1446 143 / 60;
#X floatatom 1446 343 5 0 0 0 - - -, f 5;
#X obj 1446 317 i;
#X obj 1446 366 makenote 127 200, f 34;
#X obj 1446 101 change;
#X obj 1647 343 change;
#X obj 1546 343 change;
#X obj 1446 187 osc~;
#X obj 1446 213 threshold~ 0 0 0 0;
#X floatatom 1446 167 5 0 0 0 - - -, f 5;
#X floatatom 1446 123 5 0 0 0 - - -, f 5;
#X obj 1454 287 change;
#X floatatom 1446 77 5 0 0 0 - - -, f 5;
#X floatatom 1546 317 5 0 0 0 - - -, f 5;
#X floatatom 1454 266 5 0 0 0 - - -, f 5;
#X floatatom 1647 317 5 0 0 0 - - -, f 5;
#X obj 1446 407 s \$0-noteout-note;
#X obj 1647 406 s \$0-noteout-vel;
#X obj 514 529 / 60;
#X floatatom 514 729 5 0 0 0 - - -, f 5;
#X obj 514 703 i;
#X obj 514 752 makenote 127 200, f 34;
#X obj 514 487 change;
#X obj 715 729 change;
#X obj 614 729 change;
#X obj 514 573 osc~;
#X obj 514 599 threshold~ 0 0 0 0;
#X floatatom 514 553 5 0 0 0 - - -, f 5;
#X floatatom 514 509 5 0 0 0 - - -, f 5;
#X obj 522 673 change;
#X floatatom 514 463 5 0 0 0 - - -, f 5;
#X floatatom 614 703 5 0 0 0 - - -, f 5;
#X floatatom 522 652 5 0 0 0 - - -, f 5;
#X floatatom 715 703 5 0 0 0 - - -, f 5;
#X obj 514 793 s \$0-noteout-note;
#X obj 715 792 s \$0-noteout-vel;
#X obj 825 528 / 60;
#X floatatom 825 728 5 0 0 0 - - -, f 5;
#X obj 825 702 i;
#X obj 825 751 makenote 127 200, f 34;
#X obj 825 486 change;
#X obj 1026 728 change;
#X obj 925 728 change;
#X obj 825 572 osc~;
#X obj 825 598 threshold~ 0 0 0 0;
#X floatatom 825 552 5 0 0 0 - - -, f 5;
#X floatatom 825 508 5 0 0 0 - - -, f 5;
#X obj 833 672 change;
#X floatatom 825 462 5 0 0 0 - - -, f 5;
#X floatatom 925 702 5 0 0 0 - - -, f 5;
#X floatatom 833 651 5 0 0 0 - - -, f 5;
#X floatatom 1026 702 5 0 0 0 - - -, f 5;
#X obj 825 792 s \$0-noteout-note;
#X obj 1026 791 s \$0-noteout-vel;
#X obj 1135 527 / 60;
#X floatatom 1135 727 5 0 0 0 - - -, f 5;
#X obj 1135 701 i;
#X obj 1135 750 makenote 127 200, f 34;
#X obj 1135 485 change;
#X obj 1336 727 change;
#X obj 1235 727 change;
#X obj 1135 571 osc~;
#X obj 1135 597 threshold~ 0 0 0 0;
#X floatatom 1135 551 5 0 0 0 - - -, f 5;
#X floatatom 1135 507 5 0 0 0 - - -, f 5;
#X obj 1143 671 change;
#X floatatom 1135 461 5 0 0 0 - - -, f 5;
#X floatatom 1235 701 5 0 0 0 - - -, f 5;
#X floatatom 1143 650 5 0 0 0 - - -, f 5;
#X floatatom 1336 701 5 0 0 0 - - -, f 5;
#X obj 1135 791 s \$0-noteout-note;
#X obj 1336 790 s \$0-noteout-vel;
#X obj 1446 526 / 60;
#X floatatom 1446 726 5 0 0 0 - - -, f 5;
#X obj 1446 700 i;
#X obj 1446 749 makenote 127 200, f 34;
#X obj 1446 484 change;
#X obj 1647 726 change;
#X obj 1546 726 change;
#X obj 1446 570 osc~;
#X obj 1446 596 threshold~ 0 0 0 0;
#X floatatom 1446 550 5 0 0 0 - - -, f 5;
#X floatatom 1446 506 5 0 0 0 - - -, f 5;
#X obj 1454 670 change;
#X floatatom 1446 460 5 0 0 0 - - -, f 5;
#X floatatom 1546 700 5 0 0 0 - - -, f 5;
#X floatatom 1454 649 5 0 0 0 - - -, f 5;
#X floatatom 1647 700 5 0 0 0 - - -, f 5;
#X obj 1446 790 s \$0-noteout-note;
#X obj 1647 789 s \$0-noteout-vel;
#X obj 825 56 r \$0-bpm2;
#X obj 833 246 r \$0-note2;
#X obj 925 296 r \$0-vel2;
#X obj 1026 296 r \$0-dur2;
#X obj 1135 55 r \$0-bpm3;
#X obj 1143 245 r \$0-note3;
#X obj 1235 295 r \$0-vel3;
#X obj 1336 295 r \$0-dur3;
#X obj 1446 54 r \$0-bpm4;
#X obj 1454 244 r \$0-note4;
#X obj 1546 294 r \$0-vel4;
#X obj 1647 294 r \$0-dur4;
#X obj 514 440 r \$0-bpm5;
#X obj 825 439 r \$0-bpm6;
#X obj 1135 438 r \$0-bpm7;
#X obj 1446 437 r \$0-bpm8;
#X obj 614 680 r \$0-vel5;
#X obj 715 680 r \$0-dur5;
#X obj 522 630 r \$0-note5;
#X obj 833 629 r \$0-note6;
#X obj 925 679 r \$0-vel6;
#X obj 1026 679 r \$0-dur6;
#X obj 1143 628 r \$0-note7;
#X obj 1235 678 r \$0-vel7;
#X obj 1336 678 r \$0-dur7;
#X obj 1454 627 r \$0-note8;
#X obj 1546 677 r \$0-vel8;
#X obj 1647 677 r \$0-dur8;
#X text 25 381 to add? sync BPM and phase for all 8 triggers \;;
#X obj 110 120 nbx 5 14 30 2000 0 0 empty \$0-bpm1 bpm1 60 7 0 10 -262144
-1 -1 30 256;
#X obj 110 142 nbx 5 14 30 2000 0 0 empty \$0-bpm2 bpm2 60 7 0 10 -262144
-1 -1 30 256;
#X obj 110 164 nbx 5 14 30 2000 0 0 empty \$0-bpm3 bpm3 60 7 0 10 -262144
-1 -1 30 256;
#X obj 110 186 nbx 5 14 30 2000 0 0 empty \$0-bpm4 bpm4 60 7 0 10 -262144
-1 -1 30 256;
#X obj 110 208 nbx 5 14 30 2000 0 0 empty \$0-bpm5 bpm5 60 7 0 10 -262144
-1 -1 30 256;
#X obj 110 230 nbx 5 14 30 2000 0 0 empty \$0-bpm6 bpm6 60 7 0 10 -262144
-1 -1 30 256;
#X obj 110 252 nbx 5 14 30 2000 0 0 empty \$0-bpm7 bpm7 60 7 0 10 -262144
-1 -1 30 256;
#X obj 110 274 nbx 5 14 30 2000 0 0 empty \$0-bpm8 bpm8 60 7 0 10 -262144
-1 -1 30 256;
#X obj 206 120 nbx 5 14 0 127 0 0 empty \$0-note1 note1 60 7 0 10 -262144
-1 -1 30 256;
#X obj 206 142 nbx 5 14 0 127 0 0 empty \$0-note2 note2 60 7 0 10 -262144
-1 -1 30 256;
#X obj 206 164 nbx 5 14 0 127 0 0 empty \$0-note3 note3 60 7 0 10 -262144
-1 -1 30 256;
#X obj 206 186 nbx 5 14 0 127 0 0 empty \$0-note4 note4 60 7 0 10 -262144
-1 -1 30 256;
#X obj 206 208 nbx 5 14 0 127 0 0 empty \$0-note5 note5 60 7 0 10 -262144
-1 -1 30 256;
#X obj 206 230 nbx 5 14 0 127 0 0 empty \$0-note6 note6 60 7 0 10 -262144
-1 -1 30 256;
#X obj 206 252 nbx 5 14 0 127 0 0 empty \$0-note7 note7 60 7 0 10 -262144
-1 -1 30 256;
#X obj 206 274 nbx 5 14 0 127 0 0 empty \$0-note8 note8 60 7 0 10 -262144
-1 -1 30 256;
#X obj 308 120 nbx 5 14 0 127 0 0 empty \$0-vel1 vel1 60 7 0 10 -262144
-1 -1 30 256;
#X obj 308 142 nbx 5 14 0 127 0 0 empty \$0-vel2 vel2 60 7 0 10 -262144
-1 -1 0 256;
#X obj 308 164 nbx 5 14 0 127 0 0 empty \$0-vel3 vel3 60 7 0 10 -262144
-1 -1 0 256;
#X obj 308 186 nbx 5 14 0 127 0 0 empty \$0-vel4 vel4 60 7 0 10 -262144
-1 -1 0 256;
#X obj 308 208 nbx 5 14 0 127 0 0 empty \$0-vel5 vel5 60 7 0 10 -262144
-1 -1 0 256;
#X obj 308 230 nbx 5 14 0 127 0 0 empty \$0-vel6 vel6 60 7 0 10 -262144
-1 -1 0 256;
#X obj 308 252 nbx 5 14 0 127 0 0 empty \$0-vel7 vel7 60 7 0 10 -262144
-1 -1 0 256;
#X obj 308 274 nbx 5 14 0 127 0 0 empty \$0-vel8 vel8 60 7 0 10 -262144
-1 -1 0 256;
#X obj 404 120 nbx 5 14 20 1000 0 0 empty \$0-dur1 dur1 60 7 0 10 -262144
-1 -1 20 256;
#X obj 404 142 nbx 5 14 20 1000 0 0 empty \$0-dur2 dur2 60 7 0 10 -262144
-1 -1 20 256;
#X obj 404 164 nbx 5 14 20 1000 0 0 empty \$0-dur3 dur3 60 7 0 10 -262144
-1 -1 20 256;
#X obj 404 186 nbx 5 14 20 1000 0 0 empty \$0-dur4 dur4 60 7 0 10 -262144
-1 -1 20 256;
#X obj 404 208 nbx 5 14 20 1000 0 0 empty \$0-dur5 dur5 60 7 0 10 -262144
-1 -1 20 256;
#X obj 404 230 nbx 5 14 20 1000 0 0 empty \$0-dur6 dur6 60 7 0 10 -262144
-1 -1 20 256;
#X obj 404 252 nbx 5 14 20 1000 0 0 empty \$0-dur7 dur7 60 7 0 10 -262144
-1 -1 20 256;
#X obj 404 274 nbx 5 14 20 1000 0 0 empty \$0-dur8 dur8 60 7 0 10 -262144
-1 -1 20 256;
#X connect 0 0 10 0;
#X connect 2 0 4 0;
#X connect 3 0 2 0;
#X connect 4 0 21 0;
#X connect 4 1 22 0;
#X connect 5 0 11 0;
#X connect 6 0 4 2;
#X connect 7 0 4 1;
#X connect 8 0 9 0;
#X connect 9 0 3 0;
#X connect 10 0 8 0;
#X connect 11 0 0 0;
#X connect 12 0 3 0;
#X connect 13 0 5 0;
#X connect 14 0 7 0;
#X connect 15 0 12 0;
#X connect 16 0 6 0;
#X connect 17 0 13 0;
#X connect 18 0 15 0;
#X connect 19 0 14 0;
#X connect 20 0 16 0;
#X connect 23 0 1 0;
#X connect 24 0 1 1;
#X connect 25 0 34 0;
#X connect 26 0 28 0;
#X connect 27 0 26 0;
#X connect 28 0 41 0;
#X connect 28 1 42 0;
#X connect 29 0 35 0;
#X connect 30 0 28 2;
#X connect 31 0 28 1;
#X connect 32 0 33 0;
#X connect 33 0 27 0;
#X connect 34 0 32 0;
#X connect 35 0 25 0;
#X connect 36 0 27 0;
#X connect 37 0 29 0;
#X connect 38 0 31 0;
#X connect 39 0 36 0;
#X connect 40 0 30 0;
#X connect 43 0 52 0;
#X connect 44 0 46 0;
#X connect 45 0 44 0;
#X connect 46 0 59 0;
#X connect 46 1 60 0;
#X connect 47 0 53 0;
#X connect 48 0 46 2;
#X connect 49 0 46 1;
#X connect 50 0 51 0;
#X connect 51 0 45 0;
#X connect 52 0 50 0;
#X connect 53 0 43 0;
#X connect 54 0 45 0;
#X connect 55 0 47 0;
#X connect 56 0 49 0;
#X connect 57 0 54 0;
#X connect 58 0 48 0;
#X connect 61 0 70 0;
#X connect 62 0 64 0;
#X connect 63 0 62 0;
#X connect 64 0 77 0;
#X connect 64 1 78 0;
#X connect 65 0 71 0;
#X connect 66 0 64 2;
#X connect 67 0 64 1;
#X connect 68 0 69 0;
#X connect 69 0 63 0;
#X connect 70 0 68 0;
#X connect 71 0 61 0;
#X connect 72 0 63 0;
#X connect 73 0 65 0;
#X connect 74 0 67 0;
#X connect 75 0 72 0;
#X connect 76 0 66 0;
#X connect 79 0 88 0;
#X connect 80 0 82 0;
#X connect 81 0 80 0;
#X connect 82 0 95 0;
#X connect 82 1 96 0;
#X connect 83 0 89 0;
#X connect 84 0 82 2;
#X connect 85 0 82 1;
#X connect 86 0 87 0;
#X connect 87 0 81 0;
#X connect 88 0 86 0;
#X connect 89 0 79 0;
#X connect 90 0 81 0;
#X connect 91 0 83 0;
#X connect 92 0 85 0;
#X connect 93 0 90 0;
#X connect 94 0 84 0;
#X connect 97 0 106 0;
#X connect 98 0 100 0;
#X connect 99 0 98 0;
#X connect 100 0 113 0;
#X connect 100 1 114 0;
#X connect 101 0 107 0;
#X connect 102 0 100 2;
#X connect 103 0 100 1;
#X connect 104 0 105 0;
#X connect 105 0 99 0;
#X connect 106 0 104 0;
#X connect 107 0 97 0;
#X connect 108 0 99 0;
#X connect 109 0 101 0;
#X connect 110 0 103 0;
#X connect 111 0 108 0;
#X connect 112 0 102 0;
#X connect 115 0 124 0;
#X connect 116 0 118 0;
#X connect 117 0 116 0;
#X connect 118 0 131 0;
#X connect 118 1 132 0;
#X connect 119 0 125 0;
#X connect 120 0 118 2;
#X connect 121 0 118 1;
#X connect 122 0 123 0;
#X connect 123 0 117 0;
#X connect 124 0 122 0;
#X connect 125 0 115 0;
#X connect 126 0 117 0;
#X connect 127 0 119 0;
#X connect 128 0 121 0;
#X connect 129 0 126 0;
#X connect 130 0 120 0;
#X connect 133 0 142 0;
#X connect 134 0 136 0;
#X connect 135 0 134 0;
#X connect 136 0 149 0;
#X connect 136 1 150 0;
#X connect 137 0 143 0;
#X connect 138 0 136 2;
#X connect 139 0 136 1;
#X connect 140 0 141 0;
#X connect 141 0 135 0;
#X connect 142 0 140 0;
#X connect 143 0 133 0;
#X connect 144 0 135 0;
#X connect 145 0 137 0;
#X connect 146 0 139 0;
#X connect 147 0 144 0;
#X connect 148 0 138 0;
#X connect 151 0 37 0;
#X connect 152 0 39 0;
#X connect 153 0 38 0;
#X connect 154 0 40 0;
#X connect 155 0 55 0;
#X connect 156 0 57 0;
#X connect 157 0 56 0;
#X connect 158 0 58 0;
#X connect 159 0 73 0;
#X connect 160 0 75 0;
#X connect 161 0 74 0;
#X connect 162 0 76 0;
#X connect 163 0 91 0;
#X connect 164 0 109 0;
#X connect 165 0 127 0;
#X connect 166 0 145 0;
#X connect 167 0 92 0;
#X connect 168 0 94 0;
#X connect 169 0 93 0;
#X connect 170 0 111 0;
#X connect 171 0 110 0;
#X connect 172 0 112 0;
#X connect 173 0 129 0;
#X connect 174 0 128 0;
#X connect 175 0 130 0;
#X connect 176 0 147 0;
#X connect 177 0 146 0;
#X connect 178 0 148 0;
#X coords 0 -1 1 1 400 220 1 100 100;
