#N canvas 484 291 1599 774 10;
#X obj 285 159 nbx 5 14 0 127 0 0 empty \$0-note empty 0 -8 0 10 -262144
-1 -1 36 256;
#X obj 968 100 notein;
#X obj 972 417 expr~ $v1 > $v2;
#X obj 1074 376 / 100;
#X floatatom 1074 349 5 0 0 0 - - -, f 5;
#X obj 1071 627 dac~;
#X obj 1070 483 *~, f 30;
#X obj 1070 520 +~, f 41;
#X obj 1247 449 line~;
#X obj 1313 446 line~;
#X msg 1247 427 \$1 20;
#X msg 1314 423 \$1 20;
#X floatatom 1247 399 5 0 0 0 - - -, f 5;
#X floatatom 1314 401 5 0 0 0 - - -, f 5;
#X obj 1070 594 clip~ -1 1;
#X floatatom 968 152 5 0 0 0 - - -, f 5;
#X obj 968 286 select;
#X floatatom 1007 259 5 0 0 0 - - -, f 5;
#X floatatom 1078 197 5 0 0 0 - - -, f 5;
#X obj 1078 222 / 127;
#X obj 1007 231 int;
#X obj 922 177 bng 15 250 50 0 empty empty empty 17 7 0 10 -262144
-1 -1;
#X obj 968 328 bng 15 250 50 0 empty empty empty 17 7 0 10 -262144
-1 -1;
#X obj 1007 197 change;
#X text 461 230 need scale and offset;
#X text 551 280 need to produce a 1 when hit and zero when off;
#X text 567 353 make it for multiple trigger dac out 1 - 16;
#X connect 0 0 23 0;
#X connect 1 0 15 0;
#X connect 1 1 18 0;
#X connect 2 0 6 0;
#X connect 3 0 2 1;
#X connect 4 0 3 0;
#X connect 6 0 7 0;
#X connect 7 0 14 0;
#X connect 8 0 6 1;
#X connect 9 0 7 1;
#X connect 10 0 8 0;
#X connect 11 0 9 0;
#X connect 12 0 10 0;
#X connect 13 0 11 0;
#X connect 14 0 5 0;
#X connect 14 0 5 1;
#X connect 15 0 16 0;
#X connect 16 0 22 0;
#X connect 17 0 16 1;
#X connect 18 0 19 0;
#X connect 20 0 17 0;
#X connect 21 0 15 0;
#X connect 23 0 20 0;
#X coords 0 -1 1 1 260 220 1 100 100;
