#N canvas 484 291 1599 774 10;
#X obj 125 127 hsl 150 15 0.25 2000 0 0 empty \$0-bpm bpm -2 -8 0 10
-262144 -1 -1 0 1;
#X obj 285 127 nbx 5 14 0.25 2000 0 0 empty \$0-bpm empty 0 -8 0 10
-262144 -1 -1 0.25 256;
#X obj 519 107 / 60;
#X obj 125 159 hsl 150 15 0 127 0 0 empty \$0-note note_midi -2 -8
0 10 -262144 -1 -1 0 1;
#X obj 285 159 nbx 5 14 0 127 0 0 empty \$0-note empty 0 -8 0 10 -262144
-1 -1 0 256;
#X obj 125 190 hsl 150 15 0 127 0 0 empty \$0-velocity velocity_midi
-2 -8 0 10 -262144 -1 -1 0 1;
#X obj 285 190 nbx 5 14 0 127 0 0 empty \$0-velocity empty 0 -8 0 10
-262144 -1 -1 0 256;
#X obj 125 223 hsl 150 15 20 1000 0 0 empty \$0-duration duration_ms
-2 -8 0 10 -262144 -1 -1 0 1;
#X obj 285 223 nbx 5 14 20 1000 0 0 empty \$0-duration empty 0 -8 0
10 -262144 -1 -1 20 256;
#X obj 638 592 noteout;
#X floatatom 637 450 5 0 0 0 - - -, f 5;
#X obj 637 424 i;
#X obj 637 473 makenote 127 200, f 34;
#X obj 519 61 change;
#X obj 872 450 change;
#X obj 754 448 change;
#X obj 519 205 osc~;
#X obj 519 233 threshold~ 0 0 0 0;
#X text 561 107 bpm to frequency conversion;
#X floatatom 519 131 5 0 0 0 - - -, f 5;
#X floatatom 519 87 5 0 0 0 - - -, f 5;
#X obj 637 366 change;
#X connect 0 0 13 0;
#X connect 2 0 19 0;
#X connect 3 0 21 0;
#X connect 5 0 15 0;
#X connect 7 0 14 0;
#X connect 10 0 12 0;
#X connect 11 0 10 0;
#X connect 12 0 9 0;
#X connect 12 1 9 1;
#X connect 13 0 20 0;
#X connect 14 0 12 2;
#X connect 15 0 12 1;
#X connect 16 0 17 0;
#X connect 17 0 11 0;
#X connect 19 0 16 0;
#X connect 20 0 2 0;
#X connect 21 0 11 0;
#X coords 0 -1 1 1 260 220 1 100 100;
